<svg width="163" height="39" viewBox="0 0 163 39" fill="none" xmlns="http://www.w3.org/2000/svg">
<path d="M28.474 15.396C27.9927 18.3853 26.8653 20.982 25.092 23.186C23.3187 25.39 21.1653 27.0367 18.632 28.126C16.0987 29.2153 13.35 29.76 10.386 29.76C4.88867 29.76 2.14 28.354 2.14 25.542C2.14 22.502 4.82533 15.6747 10.196 5.06C10.4493 4.55333 10.6393 4.19867 10.766 3.996C8.76467 4.148 6.72533 4.59133 4.648 5.326C2.57067 6.06067 1.21533 6.97267 0.582 8.062C0.556667 8.138 0.493333 8.176 0.392 8.176C0.290667 8.176 0.24 8.11267 0.24 7.986C0.24 7.834 0.252667 7.73267 0.278 7.682C1.24067 5.04733 3.00133 3.43867 5.56 2.856C6.72533 2.60267 8.28333 2.476 10.234 2.476H18.024C21.6213 2.476 24.294 3.45133 26.042 5.402C27.79 7.35267 28.664 9.83533 28.664 12.85C28.664 13.5847 28.6007 14.4333 28.474 15.396ZM24.484 15.7C24.7627 14.5347 24.902 13.42 24.902 12.356C24.902 9.89867 24.18 7.85933 22.736 6.238C21.9253 5.35133 20.8107 4.70533 19.392 4.3C17.9987 3.86933 16.694 3.654 15.478 3.654C14.262 5.25 12.8053 7.88467 11.108 11.558C9.436 15.206 8.08067 18.6513 7.042 21.894C6.51 23.49 6.244 24.782 6.244 25.77C6.244 26.7327 6.49733 27.366 7.004 27.67C7.51067 27.974 8.41 28.126 9.702 28.126C13.2233 28.126 16.3647 26.948 19.126 24.592C21.8873 22.2107 23.6733 19.2467 24.484 15.7ZM43.7865 13.686L45.6105 13.724C45.9905 13.724 46.2312 13.7113 46.3325 13.686C45.6232 14.1673 44.5972 15.852 43.2545 18.74C41.9372 21.6027 41.2785 23.6673 41.2785 24.934C41.2785 25.694 41.5318 26.074 42.0385 26.074C42.3678 26.074 42.8112 25.8587 43.3685 25.428C43.9512 24.9973 44.4452 24.5287 44.8505 24.022C45.2558 23.49 45.6865 22.844 46.1425 22.084C46.6238 21.324 47.0292 20.6653 47.3585 20.108C47.7132 19.5507 47.9159 19.272 47.9665 19.272C48.1185 19.272 48.1945 19.5127 48.1945 19.994C48.1945 20.4753 48.0552 20.9313 47.7765 21.362C44.6352 26.606 42.0132 29.228 39.9105 29.228C38.4918 29.228 37.7825 28.1767 37.7825 26.074C37.7825 25.4153 37.8332 24.782 37.9345 24.174C35.5532 27.5433 33.2858 29.228 31.1325 29.228C30.4992 29.228 29.9798 28.962 29.5745 28.43C29.1945 27.898 29.0045 27.1127 29.0045 26.074C29.0045 25.0353 29.3718 23.3253 30.1065 20.944C30.8412 18.5373 31.7405 16.5613 32.8045 15.016C33.0578 14.636 33.3238 14.408 33.6025 14.332C33.9065 14.2307 34.4638 14.18 35.2745 14.18H37.0985C36.4652 15.0413 35.7812 16.2067 35.0465 17.676C33.3745 21.1467 32.5385 23.6927 32.5385 25.314C32.5385 26.2767 32.8805 26.758 33.5645 26.758C34.2738 26.758 35.1098 26.0867 36.0725 24.744C37.0352 23.4013 38.0612 21.666 39.1505 19.538C40.2652 17.3847 40.9112 16.1687 41.0885 15.89C42.0259 14.4207 42.9252 13.686 43.7865 13.686ZM67.8868 4.148C67.0508 4.756 65.9488 6.466 64.5808 9.278C63.2382 12.0647 62.0475 15.016 61.0088 18.132C59.9702 21.2227 59.4508 23.4647 59.4508 24.858C59.4508 25.6687 59.6662 26.074 60.0968 26.074C60.5275 26.074 61.0595 25.7953 61.6928 25.238C62.3515 24.6807 62.8202 24.212 63.0988 23.832C63.3775 23.452 63.7448 22.882 64.2008 22.122C64.6822 21.3367 65.0875 20.6653 65.4168 20.108C65.7715 19.5253 65.9742 19.234 66.0248 19.234C66.2022 19.234 66.2908 19.4747 66.2908 19.956C66.2655 20.8427 65.2142 22.692 63.1368 25.504C62.4528 26.416 61.6295 27.2647 60.6668 28.05C59.7042 28.8353 58.8302 29.228 58.0448 29.228C56.7022 29.228 56.0308 28.2273 56.0308 26.226C56.0308 24.7567 56.3982 22.8693 57.1328 20.564C55.9675 22.8693 54.6375 24.8707 53.1428 26.568C51.6482 28.2653 50.1535 29.114 48.6588 29.114C46.9615 29.114 46.1128 27.9487 46.1128 25.618C46.1128 23.8447 46.4928 22.046 47.2528 20.222C48.0382 18.398 49.1528 16.8527 50.5968 15.586C52.0408 14.294 53.5988 13.648 55.2708 13.648C56.9682 13.648 58.1335 14.2053 58.7668 15.32C59.4762 13.9267 60.1982 12.318 60.9328 10.494C61.6928 8.67 62.1868 7.492 62.4148 6.96C62.6682 6.40266 62.8455 5.99733 62.9468 5.744C63.0735 5.49067 63.2255 5.25 63.4028 5.022C63.6815 4.66733 64.0108 4.452 64.3908 4.376C64.7962 4.27467 65.4295 4.224 66.2908 4.224C67.1775 4.19867 67.7095 4.17333 67.8868 4.148ZM58.5768 15.776C58.2728 15.32 57.7662 15.092 57.0568 15.092C55.9168 15.092 54.7642 15.6747 53.5988 16.84C52.4588 17.98 51.5342 19.31 50.8248 20.83C50.1408 22.3247 49.7988 23.642 49.7988 24.782C49.7988 25.5673 50.1028 25.96 50.7108 25.96C52.7628 25.96 55.3848 22.5653 58.5768 15.776ZM79.6891 19.12C79.8411 19.12 79.9171 19.3733 79.9171 19.88C79.9171 20.3613 79.7144 20.944 79.3091 21.628C78.9038 22.312 78.4984 22.958 78.0931 23.566C77.7131 24.174 77.1938 24.8833 76.5351 25.694C75.8764 26.5047 75.2304 27.1507 74.5971 27.632C73.0011 28.7973 71.3924 29.38 69.7711 29.38C68.1751 29.38 66.8831 28.9747 65.8951 28.164C64.9071 27.328 64.4131 26.0613 64.4131 24.364C64.4131 21.78 65.3631 19.386 67.2631 17.182C69.1631 14.978 71.3798 13.876 73.9131 13.876C75.0531 13.876 75.9651 14.18 76.6491 14.788C77.3331 15.3707 77.6751 16.08 77.6751 16.916C77.6751 18.3347 77.0038 19.4747 75.6611 20.336C74.3184 21.1973 72.7351 21.628 70.9111 21.628C69.8471 21.628 69.0618 21.4887 68.5551 21.21C68.0738 22.502 67.8331 23.642 67.8331 24.63C67.8331 26.758 68.7324 27.822 70.5311 27.822C71.5951 27.822 72.6844 27.4167 73.7991 26.606C74.9391 25.77 75.9018 24.8453 76.6871 23.832C77.4978 22.7933 78.4098 21.3113 79.4231 19.386C79.5244 19.2087 79.6131 19.12 79.6891 19.12ZM75.6611 16.118C75.6611 15.3833 75.3064 15.016 74.5971 15.016C73.6091 15.016 72.5071 15.624 71.2911 16.84C70.0751 18.056 69.4671 19.044 69.4671 19.804C69.4671 20.3107 69.9484 20.564 70.9111 20.564C71.8738 20.564 72.8744 20.0953 73.9131 19.158C74.9771 18.2207 75.5598 17.2073 75.6611 16.118ZM93.8782 21.286C91.9782 24.4527 90.2556 26.6567 88.7102 27.898C87.1649 29.1393 85.1636 29.76 82.7062 29.76C81.2876 29.76 80.0969 29.494 79.1342 28.962C78.1716 28.4047 77.6902 27.594 77.6902 26.53C77.6902 25.922 77.8676 25.3647 78.2222 24.858C78.5769 24.3513 79.0582 24.098 79.6662 24.098C80.2996 24.098 80.7049 24.326 80.8822 24.782C80.4009 25.2633 80.1602 25.8207 80.1602 26.454C80.1602 27.7207 80.8696 28.354 82.2882 28.354C83.1242 28.354 83.8462 28.0627 84.4542 27.48C85.0876 26.8973 85.4042 26.264 85.4042 25.58C85.4042 24.8707 85.2522 24.25 84.9482 23.718C84.6442 23.186 84.2769 22.7173 83.8462 22.312C83.4156 21.9067 82.9849 21.5013 82.5542 21.096C81.5156 20.108 80.9962 18.9807 80.9962 17.714C80.9962 16.422 81.4776 15.3453 82.4402 14.484C83.4282 13.5973 84.7709 13.154 86.4682 13.154C87.5322 13.154 88.4316 13.344 89.1662 13.724C89.9009 14.104 90.2682 14.6993 90.2682 15.51C90.2682 16.2953 90.0276 16.9793 89.5462 17.562C89.0649 18.1447 88.4062 18.436 87.5702 18.436C86.7596 18.436 86.3542 18.056 86.3542 17.296C86.3542 17.1187 86.6456 16.8527 87.2282 16.498C87.8109 16.1433 88.1022 15.776 88.1022 15.396C88.1022 15.016 87.9376 14.7373 87.6082 14.56C87.3042 14.3573 86.8609 14.256 86.2782 14.256C85.6956 14.256 85.1256 14.4587 84.5682 14.864C84.0362 15.2693 83.7702 15.8013 83.7702 16.46C83.7702 17.1187 84.0489 17.7393 84.6062 18.322C85.1636 18.9047 85.7716 19.3987 86.4302 19.804C87.0889 20.2093 87.6969 20.7793 88.2542 21.514C88.8116 22.2233 89.0902 22.9833 89.0902 23.794C89.0902 24.5793 88.9002 25.2887 88.5202 25.922C88.1656 26.5553 87.7349 27.062 87.2282 27.442C88.6469 26.834 90.1542 25.314 91.7502 22.882C91.9022 22.6793 92.1682 22.2613 92.5482 21.628C93.4349 20.032 93.9289 19.234 94.0302 19.234C94.1822 19.234 94.2582 19.4747 94.2582 19.956C94.2582 20.412 94.1316 20.8553 93.8782 21.286ZM110.482 21.362C107.366 26.606 104.731 29.228 102.578 29.228C101.083 29.228 100.336 28.3667 100.336 26.644C100.336 24.6427 101.134 21.7927 102.73 18.094C103.084 17.1567 103.262 16.5107 103.262 16.156C103.262 15.6493 103.034 15.396 102.578 15.396C102.274 15.396 101.754 15.5733 101.02 15.928C100.31 16.2827 99.6262 16.802 98.9676 17.486C98.3089 18.17 97.7516 18.968 97.2956 19.88C96.8649 20.7667 96.5102 21.5393 96.2316 22.198C95.9782 22.8567 95.7122 23.6673 95.4336 24.63C95.1549 25.5673 94.9016 26.34 94.6736 26.948C94.4709 27.5307 94.2556 28.2147 94.0276 29H90.3416C91.0256 27.252 92.0009 24.4653 93.2676 20.64C94.5596 16.7893 95.6616 13.7747 96.5736 11.596C97.4856 9.392 98.3722 7.54267 99.2336 6.048C100.12 4.528 101.121 3.26133 102.236 2.248C103.376 1.23467 104.566 0.727999 105.808 0.727999C107.074 0.727999 107.708 1.32333 107.708 2.514C107.708 3.35 107.366 4.452 106.682 5.82C105.212 8.708 102.755 12.052 99.3096 15.852C100.678 14.864 101.754 14.218 102.54 13.914C103.35 13.61 104.123 13.458 104.858 13.458C106.302 13.458 107.024 14.0913 107.024 15.358C107.024 15.8647 106.935 16.3333 106.758 16.764C106.58 17.1947 106.378 17.6887 106.15 18.246C105.947 18.8033 105.77 19.2593 105.618 19.614C105.491 19.9687 105.314 20.45 105.086 21.058C104.858 21.666 104.68 22.1853 104.554 22.616C104.224 23.68 104.06 24.5287 104.06 25.162C104.06 25.7953 104.275 26.112 104.706 26.112C106.226 26.112 108.126 23.908 110.406 19.5C110.482 19.3227 110.57 19.234 110.672 19.234C110.798 19.234 110.862 19.4747 110.862 19.956C110.862 20.412 110.735 20.8807 110.482 21.362ZM105.884 1.678C104.997 1.678 103.832 3.084 102.388 5.896C100.969 8.708 99.5756 11.938 98.2076 15.586C101.678 11.5073 104.047 8.16333 105.314 5.554C106.023 3.958 106.378 2.91933 106.378 2.438C106.378 1.93133 106.213 1.678 105.884 1.678ZM124.674 13.8L126.574 13.838H126.954C126.118 14.522 125.092 16.2573 123.876 19.044C122.66 21.8053 122.052 23.8193 122.052 25.086C122.052 25.7447 122.28 26.074 122.736 26.074C124.205 26.074 126.08 23.908 128.36 19.576C128.461 19.3987 128.55 19.31 128.626 19.31C128.778 19.31 128.854 19.5507 128.854 20.032C128.854 20.488 128.727 20.9313 128.474 21.362C125.358 26.606 122.748 29.228 120.646 29.228C119.278 29.228 118.594 28.1767 118.594 26.074C118.594 24.5033 118.86 22.958 119.392 21.438C116.504 26.5553 113.831 29.114 111.374 29.114C109.676 29.114 108.828 27.9487 108.828 25.618C108.828 23.8447 109.208 22.046 109.968 20.222C110.753 18.398 111.868 16.8527 113.312 15.586C114.756 14.294 116.339 13.648 118.062 13.648C118.872 13.648 119.632 13.838 120.342 14.218C121.051 14.5727 121.52 15.1553 121.748 15.966C122.026 15.3833 122.457 14.8767 123.04 14.446C123.622 14.0153 124.167 13.8 124.674 13.8ZM121.52 16.308C121.266 15.4973 120.671 15.092 119.734 15.092C118.062 15.092 116.44 16.2573 114.87 18.588C113.299 20.8933 112.514 22.958 112.514 24.782C112.514 25.5673 112.818 25.96 113.426 25.96C114.084 25.96 114.857 25.5547 115.744 24.744C116.63 23.908 117.428 22.9327 118.138 21.818C119.708 19.3353 120.836 17.4987 121.52 16.308ZM143.699 20.868C142.179 23.6547 140.532 25.8207 138.759 27.366C136.985 28.9113 134.883 29.684 132.451 29.684C130.019 29.684 128.651 29.0633 128.347 27.822L126.219 34.472C125.712 35.9667 125.332 36.9293 125.079 37.36C124.8 37.816 124.496 38.1073 124.167 38.234C123.837 38.3607 123.419 38.424 122.913 38.424H121.089C121.747 37.4613 123.077 34.1427 125.079 28.468C127.08 22.768 128.397 19.1327 129.031 17.562C129.689 15.9913 130.171 15.0413 130.475 14.712C131.083 14.104 132.134 13.8 133.629 13.8H134.769C134.034 14.3067 133.033 15.8267 131.767 18.36C134.123 15.2187 136.2 13.648 137.999 13.648C139.696 13.648 140.545 14.8133 140.545 17.144C140.545 19.0693 139.937 21.0453 138.721 23.072C137.505 25.0987 136.073 26.6693 134.427 27.784H134.731C135.769 27.784 136.821 27.366 137.885 26.53C138.974 25.694 139.911 24.7693 140.697 23.756C141.127 23.1987 141.735 22.2613 142.521 20.944C143.306 19.6013 143.724 18.93 143.775 18.93C143.977 18.93 144.079 19.1453 144.079 19.576C144.079 20.0067 143.952 20.4373 143.699 20.868ZM136.289 16.878C136.213 16.8527 136.099 16.84 135.947 16.84C135.415 16.84 134.832 17.0933 134.199 17.6C133.16 18.4107 132.058 19.7533 130.893 21.628C129.727 23.5027 129.145 25.0353 129.145 26.226C129.145 27.4167 129.512 28.012 130.247 28.012C131.564 28.012 132.995 26.7073 134.541 24.098C136.086 21.4887 136.859 19.4493 136.859 17.98C136.859 17.3467 136.669 16.9793 136.289 16.878ZM157.248 19.12C157.4 19.12 157.476 19.3733 157.476 19.88C157.476 20.3613 157.273 20.944 156.868 21.628C156.462 22.312 156.057 22.958 155.652 23.566C155.272 24.174 154.752 24.8833 154.094 25.694C153.435 26.5047 152.789 27.1507 152.156 27.632C150.56 28.7973 148.951 29.38 147.33 29.38C145.734 29.38 144.442 28.9747 143.454 28.164C142.466 27.328 141.972 26.0613 141.972 24.364C141.972 21.78 142.922 19.386 144.822 17.182C146.722 14.978 148.938 13.876 151.472 13.876C152.612 13.876 153.524 14.18 154.208 14.788C154.892 15.3707 155.234 16.08 155.234 16.916C155.234 18.3347 154.562 19.4747 153.22 20.336C151.877 21.1973 150.294 21.628 148.47 21.628C147.406 21.628 146.62 21.4887 146.114 21.21C145.632 22.502 145.392 23.642 145.392 24.63C145.392 26.758 146.291 27.822 148.09 27.822C149.154 27.822 150.243 27.4167 151.358 26.606C152.498 25.77 153.46 24.8453 154.246 23.832C155.056 22.7933 155.968 21.3113 156.982 19.386C157.083 19.2087 157.172 19.12 157.248 19.12ZM153.22 16.118C153.22 15.3833 152.865 15.016 152.156 15.016C151.168 15.016 150.066 15.624 148.85 16.84C147.634 18.056 147.026 19.044 147.026 19.804C147.026 20.3107 147.507 20.564 148.47 20.564C149.432 20.564 150.433 20.0953 151.472 19.158C152.536 18.2207 153.118 17.2073 153.22 16.118Z" fill="#18BD4F"/>
<path d="M162.735 27.138C162.456 27.1887 162.038 27.48 161.481 28.012C160.949 28.544 160.594 28.9747 160.417 29.304C159.175 28.8987 158.555 28.3793 158.555 27.746C158.555 27.29 158.821 26.8467 159.353 26.416C159.91 25.9853 160.543 25.77 161.253 25.77C162.291 25.77 162.811 26.0867 162.811 26.72C162.811 26.796 162.785 26.9353 162.735 27.138Z" fill="#333333"/>
</svg>
