<svg width="163" height="39" viewBox="0 0 163 39" fill="none" xmlns="http://www.w3.org/2000/svg">
<path d="M28.474 15.5254C27.9927 18.5147 26.8653 21.1114 25.092 23.3154C23.3187 25.5194 21.1653 27.1661 18.632 28.2554C16.0987 29.3447 13.35 29.8894 10.386 29.8894C4.88867 29.8894 2.14 28.4834 2.14 25.6714C2.14 22.6314 4.82533 15.8041 10.196 5.18939C10.4493 4.68273 10.6393 4.32806 10.766 4.12539C8.76467 4.27739 6.72533 4.72073 4.648 5.45539C2.57067 6.19006 1.21533 7.10206 0.582 8.19139C0.556667 8.26739 0.493333 8.30539 0.392 8.30539C0.290667 8.30539 0.24 8.24206 0.24 8.11539C0.24 7.96339 0.252667 7.86206 0.278 7.81139C1.24067 5.17673 3.00133 3.56806 5.56 2.98539C6.72533 2.73206 8.28333 2.60539 10.234 2.60539H18.024C21.6213 2.60539 24.294 3.58073 26.042 5.53139C27.79 7.48206 28.664 9.96473 28.664 12.9794C28.664 13.7141 28.6007 14.5627 28.474 15.5254ZM24.484 15.8294C24.7627 14.6641 24.902 13.5494 24.902 12.4854C24.902 10.0281 24.18 7.98873 22.736 6.36739C21.9253 5.48073 20.8107 4.83473 19.392 4.42939C17.9987 3.99873 16.694 3.78339 15.478 3.78339C14.262 5.37939 12.8053 8.01406 11.108 11.6874C9.436 15.3354 8.08067 18.7807 7.042 22.0234C6.51 23.6194 6.244 24.9114 6.244 25.8994C6.244 26.8621 6.49733 27.4954 7.004 27.7994C7.51067 28.1034 8.41 28.2554 9.702 28.2554C13.2233 28.2554 16.3647 27.0774 19.126 24.7214C21.8873 22.3401 23.6733 19.3761 24.484 15.8294ZM43.7865 13.8154L45.6105 13.8534C45.9905 13.8534 46.2312 13.8407 46.3325 13.8154C45.6232 14.2967 44.5972 15.9814 43.2545 18.8694C41.9372 21.7321 41.2785 23.7967 41.2785 25.0634C41.2785 25.8234 41.5318 26.2034 42.0385 26.2034C42.3678 26.2034 42.8112 25.9881 43.3685 25.5574C43.9512 25.1267 44.4452 24.6581 44.8505 24.1514C45.2558 23.6194 45.6865 22.9734 46.1425 22.2134C46.6238 21.4534 47.0292 20.7947 47.3585 20.2374C47.7132 19.6801 47.9159 19.4014 47.9665 19.4014C48.1185 19.4014 48.1945 19.6421 48.1945 20.1234C48.1945 20.6047 48.0552 21.0607 47.7765 21.4914C44.6352 26.7354 42.0132 29.3574 39.9105 29.3574C38.4918 29.3574 37.7825 28.3061 37.7825 26.2034C37.7825 25.5447 37.8332 24.9114 37.9345 24.3034C35.5532 27.6727 33.2858 29.3574 31.1325 29.3574C30.4992 29.3574 29.9798 29.0914 29.5745 28.5594C29.1945 28.0274 29.0045 27.2421 29.0045 26.2034C29.0045 25.1647 29.3718 23.4547 30.1065 21.0734C30.8412 18.6667 31.7405 16.6907 32.8045 15.1454C33.0578 14.7654 33.3238 14.5374 33.6025 14.4614C33.9065 14.3601 34.4638 14.3094 35.2745 14.3094H37.0985C36.4652 15.1707 35.7812 16.3361 35.0465 17.8054C33.3745 21.2761 32.5385 23.8221 32.5385 25.4434C32.5385 26.4061 32.8805 26.8874 33.5645 26.8874C34.2738 26.8874 35.1098 26.2161 36.0725 24.8734C37.0352 23.5307 38.0612 21.7954 39.1505 19.6674C40.2652 17.5141 40.9112 16.2981 41.0885 16.0194C42.0259 14.5501 42.9252 13.8154 43.7865 13.8154ZM67.8868 4.27739C67.0508 4.88539 65.9488 6.59539 64.5808 9.40739C63.2382 12.1941 62.0475 15.1454 61.0088 18.2614C59.9702 21.3521 59.4508 23.5941 59.4508 24.9874C59.4508 25.7981 59.6662 26.2034 60.0968 26.2034C60.5275 26.2034 61.0595 25.9247 61.6928 25.3674C62.3515 24.8101 62.8202 24.3414 63.0988 23.9614C63.3775 23.5814 63.7448 23.0114 64.2008 22.2514C64.6822 21.4661 65.0875 20.7947 65.4168 20.2374C65.7715 19.6547 65.9742 19.3634 66.0248 19.3634C66.2022 19.3634 66.2908 19.6041 66.2908 20.0854C66.2655 20.9721 65.2142 22.8214 63.1368 25.6334C62.4528 26.5454 61.6295 27.3941 60.6668 28.1794C59.7042 28.9647 58.8302 29.3574 58.0448 29.3574C56.7022 29.3574 56.0308 28.3567 56.0308 26.3554C56.0308 24.8861 56.3982 22.9987 57.1328 20.6934C55.9675 22.9987 54.6375 25.0001 53.1428 26.6974C51.6482 28.3947 50.1535 29.2434 48.6588 29.2434C46.9615 29.2434 46.1128 28.0781 46.1128 25.7474C46.1128 23.9741 46.4928 22.1754 47.2528 20.3514C48.0382 18.5274 49.1528 16.9821 50.5968 15.7154C52.0408 14.4234 53.5988 13.7774 55.2708 13.7774C56.9682 13.7774 58.1335 14.3347 58.7668 15.4494C59.4762 14.0561 60.1982 12.4474 60.9328 10.6234C61.6928 8.79939 62.1868 7.62139 62.4148 7.08939C62.6682 6.53206 62.8455 6.12673 62.9468 5.87339C63.0735 5.62006 63.2255 5.37939 63.4028 5.15139C63.6815 4.79673 64.0108 4.58139 64.3908 4.50539C64.7962 4.40406 65.4295 4.35339 66.2908 4.35339C67.1775 4.32806 67.7095 4.30273 67.8868 4.27739ZM58.5768 15.9054C58.2728 15.4494 57.7662 15.2214 57.0568 15.2214C55.9168 15.2214 54.7642 15.8041 53.5988 16.9694C52.4588 18.1094 51.5342 19.4394 50.8248 20.9594C50.1408 22.4541 49.7988 23.7714 49.7988 24.9114C49.7988 25.6967 50.1028 26.0894 50.7108 26.0894C52.7628 26.0894 55.3848 22.6947 58.5768 15.9054ZM79.6891 19.2494C79.8411 19.2494 79.9171 19.5027 79.9171 20.0094C79.9171 20.4907 79.7144 21.0734 79.3091 21.7574C78.9038 22.4414 78.4984 23.0874 78.0931 23.6954C77.7131 24.3034 77.1938 25.0127 76.5351 25.8234C75.8764 26.6341 75.2304 27.2801 74.5971 27.7614C73.0011 28.9267 71.3924 29.5094 69.7711 29.5094C68.1751 29.5094 66.8831 29.1041 65.8951 28.2934C64.9071 27.4574 64.4131 26.1907 64.4131 24.4934C64.4131 21.9094 65.3631 19.5154 67.2631 17.3114C69.1631 15.1074 71.3798 14.0054 73.9131 14.0054C75.0531 14.0054 75.9651 14.3094 76.6491 14.9174C77.3331 15.5001 77.6751 16.2094 77.6751 17.0454C77.6751 18.4641 77.0038 19.6041 75.6611 20.4654C74.3184 21.3267 72.7351 21.7574 70.9111 21.7574C69.8471 21.7574 69.0618 21.6181 68.5551 21.3394C68.0738 22.6314 67.8331 23.7714 67.8331 24.7594C67.8331 26.8874 68.7324 27.9514 70.5311 27.9514C71.5951 27.9514 72.6844 27.5461 73.7991 26.7354C74.9391 25.8994 75.9018 24.9747 76.6871 23.9614C77.4978 22.9227 78.4098 21.4407 79.4231 19.5154C79.5244 19.3381 79.6131 19.2494 79.6891 19.2494ZM75.6611 16.2474C75.6611 15.5127 75.3064 15.1454 74.5971 15.1454C73.6091 15.1454 72.5071 15.7534 71.2911 16.9694C70.0751 18.1854 69.4671 19.1734 69.4671 19.9334C69.4671 20.4401 69.9484 20.6934 70.9111 20.6934C71.8738 20.6934 72.8744 20.2247 73.9131 19.2874C74.9771 18.3501 75.5598 17.3367 75.6611 16.2474ZM93.8782 21.4154C91.9782 24.5821 90.2556 26.7861 88.7102 28.0274C87.1649 29.2687 85.1636 29.8894 82.7062 29.8894C81.2876 29.8894 80.0969 29.6234 79.1342 29.0914C78.1716 28.5341 77.6902 27.7234 77.6902 26.6594C77.6902 26.0514 77.8676 25.4941 78.2222 24.9874C78.5769 24.4807 79.0582 24.2274 79.6662 24.2274C80.2996 24.2274 80.7049 24.4554 80.8822 24.9114C80.4009 25.3927 80.1602 25.9501 80.1602 26.5834C80.1602 27.8501 80.8696 28.4834 82.2882 28.4834C83.1242 28.4834 83.8462 28.1921 84.4542 27.6094C85.0876 27.0267 85.4042 26.3934 85.4042 25.7094C85.4042 25.0001 85.2522 24.3794 84.9482 23.8474C84.6442 23.3154 84.2769 22.8467 83.8462 22.4414C83.4156 22.0361 82.9849 21.6307 82.5542 21.2254C81.5156 20.2374 80.9962 19.1101 80.9962 17.8434C80.9962 16.5514 81.4776 15.4747 82.4402 14.6134C83.4282 13.7267 84.7709 13.2834 86.4682 13.2834C87.5322 13.2834 88.4316 13.4734 89.1662 13.8534C89.9009 14.2334 90.2682 14.8287 90.2682 15.6394C90.2682 16.4247 90.0276 17.1087 89.5462 17.6914C89.0649 18.2741 88.4062 18.5654 87.5702 18.5654C86.7596 18.5654 86.3542 18.1854 86.3542 17.4254C86.3542 17.2481 86.6456 16.9821 87.2282 16.6274C87.8109 16.2727 88.1022 15.9054 88.1022 15.5254C88.1022 15.1454 87.9376 14.8667 87.6082 14.6894C87.3042 14.4867 86.8609 14.3854 86.2782 14.3854C85.6956 14.3854 85.1256 14.5881 84.5682 14.9934C84.0362 15.3987 83.7702 15.9307 83.7702 16.5894C83.7702 17.2481 84.0489 17.8687 84.6062 18.4514C85.1636 19.0341 85.7716 19.5281 86.4302 19.9334C87.0889 20.3387 87.6969 20.9087 88.2542 21.6434C88.8116 22.3527 89.0902 23.1127 89.0902 23.9234C89.0902 24.7087 88.9002 25.4181 88.5202 26.0514C88.1656 26.6847 87.7349 27.1914 87.2282 27.5714C88.6469 26.9634 90.1542 25.4434 91.7502 23.0114C91.9022 22.8087 92.1682 22.3907 92.5482 21.7574C93.4349 20.1614 93.9289 19.3634 94.0302 19.3634C94.1822 19.3634 94.2582 19.6041 94.2582 20.0854C94.2582 20.5414 94.1316 20.9847 93.8782 21.4154ZM110.482 21.4914C107.366 26.7354 104.731 29.3574 102.578 29.3574C101.083 29.3574 100.336 28.4961 100.336 26.7734C100.336 24.7721 101.134 21.9221 102.73 18.2234C103.084 17.2861 103.262 16.6401 103.262 16.2854C103.262 15.7787 103.034 15.5254 102.578 15.5254C102.274 15.5254 101.754 15.7027 101.02 16.0574C100.31 16.4121 99.6262 16.9314 98.9676 17.6154C98.3089 18.2994 97.7516 19.0974 97.2956 20.0094C96.8649 20.8961 96.5102 21.6687 96.2316 22.3274C95.9782 22.9861 95.7122 23.7967 95.4336 24.7594C95.1549 25.6967 94.9016 26.4694 94.6736 27.0774C94.4709 27.6601 94.2556 28.3441 94.0276 29.1294H90.3416C91.0256 27.3814 92.0009 24.5947 93.2676 20.7694C94.5596 16.9187 95.6616 13.9041 96.5736 11.7254C97.4856 9.52139 98.3722 7.67206 99.2336 6.17739C100.12 4.65739 101.121 3.39073 102.236 2.37739C103.376 1.36406 104.566 0.857394 105.808 0.857394C107.074 0.857394 107.708 1.45273 107.708 2.64339C107.708 3.47939 107.366 4.58139 106.682 5.94939C105.212 8.83739 102.755 12.1814 99.3096 15.9814C100.678 14.9934 101.754 14.3474 102.54 14.0434C103.35 13.7394 104.123 13.5874 104.858 13.5874C106.302 13.5874 107.024 14.2207 107.024 15.4874C107.024 15.9941 106.935 16.4627 106.758 16.8934C106.58 17.3241 106.378 17.8181 106.15 18.3754C105.947 18.9327 105.77 19.3887 105.618 19.7434C105.491 20.0981 105.314 20.5794 105.086 21.1874C104.858 21.7954 104.68 22.3147 104.554 22.7454C104.224 23.8094 104.06 24.6581 104.06 25.2914C104.06 25.9247 104.275 26.2414 104.706 26.2414C106.226 26.2414 108.126 24.0374 110.406 19.6294C110.482 19.4521 110.57 19.3634 110.672 19.3634C110.798 19.3634 110.862 19.6041 110.862 20.0854C110.862 20.5414 110.735 21.0101 110.482 21.4914ZM105.884 1.80739C104.997 1.80739 103.832 3.21339 102.388 6.02539C100.969 8.83739 99.5756 12.0674 98.2076 15.7154C101.678 11.6367 104.047 8.29273 105.314 5.68339C106.023 4.08739 106.378 3.04873 106.378 2.56739C106.378 2.06073 106.213 1.80739 105.884 1.80739ZM124.674 13.9294L126.574 13.9674H126.954C126.118 14.6514 125.092 16.3867 123.876 19.1734C122.66 21.9347 122.052 23.9487 122.052 25.2154C122.052 25.8741 122.28 26.2034 122.736 26.2034C124.205 26.2034 126.08 24.0374 128.36 19.7054C128.461 19.5281 128.55 19.4394 128.626 19.4394C128.778 19.4394 128.854 19.6801 128.854 20.1614C128.854 20.6174 128.727 21.0607 128.474 21.4914C125.358 26.7354 122.748 29.3574 120.646 29.3574C119.278 29.3574 118.594 28.3061 118.594 26.2034C118.594 24.6327 118.86 23.0874 119.392 21.5674C116.504 26.6847 113.831 29.2434 111.374 29.2434C109.676 29.2434 108.828 28.0781 108.828 25.7474C108.828 23.9741 109.208 22.1754 109.968 20.3514C110.753 18.5274 111.868 16.9821 113.312 15.7154C114.756 14.4234 116.339 13.7774 118.062 13.7774C118.872 13.7774 119.632 13.9674 120.342 14.3474C121.051 14.7021 121.52 15.2847 121.748 16.0954C122.026 15.5127 122.457 15.0061 123.04 14.5754C123.622 14.1447 124.167 13.9294 124.674 13.9294ZM121.52 16.4374C121.266 15.6267 120.671 15.2214 119.734 15.2214C118.062 15.2214 116.44 16.3867 114.87 18.7174C113.299 21.0227 112.514 23.0874 112.514 24.9114C112.514 25.6967 112.818 26.0894 113.426 26.0894C114.084 26.0894 114.857 25.6841 115.744 24.8734C116.63 24.0374 117.428 23.0621 118.138 21.9474C119.708 19.4647 120.836 17.6281 121.52 16.4374ZM143.699 20.9974C142.179 23.7841 140.532 25.9501 138.759 27.4954C136.985 29.0407 134.883 29.8134 132.451 29.8134C130.019 29.8134 128.651 29.1927 128.347 27.9514L126.219 34.6014C125.712 36.0961 125.332 37.0587 125.079 37.4894C124.8 37.9454 124.496 38.2367 124.167 38.3634C123.837 38.4901 123.419 38.5534 122.913 38.5534H121.089C121.747 37.5907 123.077 34.2721 125.079 28.5974C127.08 22.8974 128.397 19.2621 129.031 17.6914C129.689 16.1207 130.171 15.1707 130.475 14.8414C131.083 14.2334 132.134 13.9294 133.629 13.9294H134.769C134.034 14.4361 133.033 15.9561 131.767 18.4894C134.123 15.3481 136.2 13.7774 137.999 13.7774C139.696 13.7774 140.545 14.9427 140.545 17.2734C140.545 19.1987 139.937 21.1747 138.721 23.2014C137.505 25.2281 136.073 26.7987 134.427 27.9134H134.731C135.769 27.9134 136.821 27.4954 137.885 26.6594C138.974 25.8234 139.911 24.8987 140.697 23.8854C141.127 23.3281 141.735 22.3907 142.521 21.0734C143.306 19.7307 143.724 19.0594 143.775 19.0594C143.977 19.0594 144.079 19.2747 144.079 19.7054C144.079 20.1361 143.952 20.5667 143.699 20.9974ZM136.289 17.0074C136.213 16.9821 136.099 16.9694 135.947 16.9694C135.415 16.9694 134.832 17.2227 134.199 17.7294C133.16 18.5401 132.058 19.8827 130.893 21.7574C129.727 23.6321 129.145 25.1647 129.145 26.3554C129.145 27.5461 129.512 28.1414 130.247 28.1414C131.564 28.1414 132.995 26.8367 134.541 24.2274C136.086 21.6181 136.859 19.5787 136.859 18.1094C136.859 17.4761 136.669 17.1087 136.289 17.0074ZM157.248 19.2494C157.4 19.2494 157.476 19.5027 157.476 20.0094C157.476 20.4907 157.273 21.0734 156.868 21.7574C156.462 22.4414 156.057 23.0874 155.652 23.6954C155.272 24.3034 154.752 25.0127 154.094 25.8234C153.435 26.6341 152.789 27.2801 152.156 27.7614C150.56 28.9267 148.951 29.5094 147.33 29.5094C145.734 29.5094 144.442 29.1041 143.454 28.2934C142.466 27.4574 141.972 26.1907 141.972 24.4934C141.972 21.9094 142.922 19.5154 144.822 17.3114C146.722 15.1074 148.938 14.0054 151.472 14.0054C152.612 14.0054 153.524 14.3094 154.208 14.9174C154.892 15.5001 155.234 16.2094 155.234 17.0454C155.234 18.4641 154.562 19.6041 153.22 20.4654C151.877 21.3267 150.294 21.7574 148.47 21.7574C147.406 21.7574 146.62 21.6181 146.114 21.3394C145.632 22.6314 145.392 23.7714 145.392 24.7594C145.392 26.8874 146.291 27.9514 148.09 27.9514C149.154 27.9514 150.243 27.5461 151.358 26.7354C152.498 25.8994 153.46 24.9747 154.246 23.9614C155.056 22.9227 155.968 21.4407 156.982 19.5154C157.083 19.3381 157.172 19.2494 157.248 19.2494ZM153.22 16.2474C153.22 15.5127 152.865 15.1454 152.156 15.1454C151.168 15.1454 150.066 15.7534 148.85 16.9694C147.634 18.1854 147.026 19.1734 147.026 19.9334C147.026 20.4401 147.507 20.6934 148.47 20.6934C149.432 20.6934 150.433 20.2247 151.472 19.2874C152.536 18.3501 153.118 17.3367 153.22 16.2474ZM162.735 27.2674C162.456 27.3181 162.038 27.6094 161.481 28.1414C160.949 28.6734 160.594 29.1041 160.417 29.4334C159.175 29.0281 158.555 28.5087 158.555 27.8754C158.555 27.4194 158.821 26.9761 159.353 26.5454C159.91 26.1147 160.543 25.8994 161.253 25.8994C162.291 25.8994 162.811 26.2161 162.811 26.8494C162.811 26.9254 162.785 27.0647 162.735 27.2674Z" fill="white"/>
</svg>
