<svg width="24" height="25" viewBox="0 0 24 25" fill="none" xmlns="http://www.w3.org/2000/svg">
<path fill-rule="evenodd" clip-rule="evenodd" d="M3.70716 11.3065C3.3078 11.3615 3 11.7089 3 12.1293C3 12.5879 3.36631 12.9596 3.81818 12.9596H18.1999L13.0047 18.2107L12.9253 18.3037C12.687 18.6283 12.7124 19.0896 13.0023 19.385C13.3212 19.7099 13.8392 19.711 14.1594 19.3874L20.7477 12.7289C20.787 12.6908 20.8224 12.6488 20.8536 12.6034C21.0766 12.2792 21.0452 11.8293 20.7593 11.5405L14.1593 4.87133L14.0674 4.79113C13.7466 4.55065 13.2921 4.57844 13.0023 4.87386C12.6834 5.19881 12.6845 5.72454 13.0047 6.0481L18.2012 11.299L3.81818 11.299L3.70716 11.3065Z" fill="white"/>
</svg>
